<?xml version="1.0" encoding="utf-8"?>
<!-- Generator: Adobe Illustrator 27.9.6, SVG Export Plug-In . SVG Version: 9.03 Build 54986)  -->
<svg version="1.1" id="Layer_1" xmlns="http://www.w3.org/2000/svg" xmlns:xlink="http://www.w3.org/1999/xlink" x="0px" y="0px"
	 viewBox="0 0 503 351" style="enable-background:new 0 0 503 351;" xml:space="preserve">
<style type="text/css">
	.st0{fill-rule:evenodd;clip-rule:evenodd;fill:none;}
</style>
<path id="ecology_1" class="st0" d="M60.36,1.04c7,0,14,0,21,0c6.09,13.34,23.12,26.47,33,40c-0.67,1-1.33,2-2,3c-5.39,1.13-7.49,2.53-11,5
	c-1.33-0.33-2.67-0.67-4-1c-1.33-2.67-2.67-5.33-4-8c-3.81,1.64-6.29,1.91-11,1c-3.05-7.15-3.02-15.17-4-23
	c-5.33-0.67-10.67-1.33-16-2c-2-2.67-4-5.33-6-8C57.7,5.71,59.03,3.37,60.36,1.04z"/>
<path id="ecology_2" class="st0" d="M143.36,37.04c8.83,3.91,10.26,14.54,17,19c7.7,5.09,18.34,2.85,24,5c-0.67,1.67-1.33,3.33-2,5
	c-11.86-1.72-12.71,9.96-19,14c-8.1,2.8-19.75,1.05-28,5c0.81,4.81-1.64,12.33-7,11c-4.81,2.66-5.25,3.85-10,2c-2-2-4-4-6-6
	c-7.89-16.12-0.92-40.87,6-53c0.33,0,0.67,0,1,0c5.91,6.08,8.03,9.37,14,16c1-0.67,2-1.33,3-2
	C138.85,47.56,141.04,42.13,143.36,37.04z"/>
<path id="ecology_3" class="st0" d="M208.36,77.04c3.33,0.67,6.67,1.33,10,2c0,8.67,0,17.33,0,26c12.67,3.32,22.63,11.24,31,19c-0.33,3-0.67,6-1,9
	c-3,4-6,8-9,12c-15.07-5.15-19.38,12.42-34,6c0.33-2.33,0.67-4.67,1-7c-9.87,1.64-14.53,1.58-22-3c1.44-16.99-3.8-45.68,20-49
	C205.23,86.38,206.1,80.74,208.36,77.04z"/>
<path id="ecology_4" class="st0" d="M328.36,82.04c5.32,2.62,14.05,2.43,20,6c-1.87,18.07-10.83,14.65-23,20c0.67,3.67,1.33,7.33,2,11
	c1,1.67,2,3.33,3,5c5.67,0.33,11.33,0.67,17,1c6.29,4.2,10.79,20.21,7,28c-5.33,0-10.67,0-16,0c-0.22,4.51-0.71,5.39-2,8
	c-8.49,0.08-18.1,0.77-24-2c0.23-6.21-0.24-11.4-2-15c-10.14-0.73-5.54-4.62-11-8c-1.94-1.2-10.21,0.22-13-1c-0.33-1-0.67-2-1-3
	c0.33-2,0.67-4,1-6c5.33-1.67,10.67-3.33,16-5c0-8,0-16,0-24c3.33-4.33,6.67-8.67,10-13C319.9,84.03,324.03,85.28,328.36,82.04z"/>
<path id="ecology_5" class="st0" d="M1.36,164.04c0-9,0-18,0-27c5.52-0.54,15.19-8.14,15-18c-0.67-2.33-1.33-4.67-2-7c-7.91,0.27-12.53-2.49-13-12
	c2-2.33,4-4.67,6-7c1.67-0.67,3.33-1.33,5-2c1,0.67,2,1.33,3,2c2,6,4,12,6,18c8.48-0.55,10-0.45,14,5c-2.56,4.82-4.39,9.34-8,13
	c-3.72-1.58-5.47-1.81-10-1c1.53,9.61,5.66,15.8,7,24c-1.67,3.33-3.33,6.67-5,10C13.02,160.12,11.35,163.58,1.36,164.04z"/>
<path id="ecology_6" class="st0" d="M362.36,155.04c21.93,2.45,27.55,1.27,23,24c-1.67,1.33-3.33,2.67-5,4c-7.43-3.99-14.65-4.81-23-9
	C357.03,164.19,358.75,160.28,362.36,155.04z"/>
<path id="ecology_7" class="st0" d="M240.36,172.04c5.67,0.33,11.33,0.67,17,1c0.33,0.67,0.67,1.33,1,2c-1.83,11.09-8.69,17.31-4,28
	c4.67,0.67,9.33,1.33,14,2c0.33-1,0.67-2,1-3c0.67-2.67,1.33-5.33,2-8c20.01-0.57,28.91-8.67,49-11c2.67,2.33,5.33,4.67,8,7
	c-0.51,11.97,8.05,13.52-2,21c-4.67-1.67-9.33-3.33-14-5c-2,1.67-4,3.33-6,5c0,2.67,0,5.33,0,8c1,0.33,2,0.67,3,1
	c8.78,2.84,17.83-2.34,23-6c3,1.67,6,3.33,9,5c2.24,12,5.97,29.79,0,39c-10.41,1.62-20.46,11.65-19,22c-1.67,0-3.33,0-5,0
	c-5.33-2-10.67-4-16-6c1-7,2-14,3-21c7.45-0.02,11.82-1.21,13-8c-8.72-3.87-16.46-6.59-24-10c-5.73,4.45-5.56,8.99-14,6
	c-5.25,1.65-12.99,1.03-17-1c-0.67-4.67-1.33-9.33-2-14c-9.29,0.06-25.03,1.71-29-5c-4.6-11.47,4.37-13.3,7-19
	c4.74-10.3-0.26-17.64-1-27C238.36,174.04,239.36,173.04,240.36,172.04z"/>
<path id="ecology_8" class="st0" d="M437.36,241.04c1.45,14.26,12.65,18.69,6,31c5.17,4.27,5.51,7.85,9,14c5.27-1.75,10.01-1.86,14,0
	c2.16,16.53-5.68,26.35-20,17c-0.33-5.33-0.67-10.67-1-16c-11.88,1.68-11.12-3.54-16-11c-6.61,2.2-8.26,5.88-15,3
	c0.96-8.2,7.23-13.18,4-24c-2.1-7.03-7.71-15.94-3-26c11.34-4.51,4.41-13.86,8-24c-4.64-5.19-8.1-4.56-14-7
	c-3.04-13.07-11.07-10.71-18-17c1.28-3.01,0.63-2.25,3-4c4.92-2.59,9.61-3.79,15-3c1.33,3,2.67,6,4,9c0.67-0.67,1.33-1.33,2-2
	c6.32-4.09,3.87-9.17,13-6c3.49-0.57,2.93-0.35,6,1c-1.84,16.41,8.35,21.5,17,30c3.33-0.33,6.67-0.67,10-1
	c-0.24-6.44,0.16-12.23,2-16c1.33,0,2.67,0,4,0c6.81,5.86,9.36,7.37,13,17c-3,3.33-6,6.67-9,10c2.36,4.68,3.22,6.26,1,11
	c-1.67,0.33-3.33,0.67-5,1c0.21,11.38,0.52,21.77-4,29c-0.33,0-0.67,0-1,0c-2-0.33-4-0.67-6-1c-0.67-0.67-1.33-1.33-2-2
	c-0.33-4-0.67-8-1-12C448.03,241.71,442.7,241.37,437.36,241.04z"/>
<path id="ecology_9" class="st0" d="M165.36,181.04c5.25,0.74,42.78,19.02,45,22c0,1.33,0,2.67,0,4c-2.67,3-5.33,6-8,9c-1.33-1-2.67-2-4-3
	c0-3,0-6,0-9c-0.67,0-1.33,0-2,0c-1.46,10.41-13.4,12.86-23,12c1.65,3.95,1.76,3.04,0,7c-1-0.67-2-1.33-3-2c0.97-5.9-0.72-7.84,0-12
	c1.8-3.61,2.05-3.55,6-5c-0.67-4.67-1.33-9.33-2-14c-4.85,2.7-4.24,3.58-9,2c-0.67-2-1.33-4-2-6
	C164.03,184.37,164.7,182.71,165.36,181.04z"/>
<path id="ecology_10" class="st0" d="M405.36,200.04c4,2.33,8,4.67,12,7c0,6,0,12,0,18c-1,0.33-2,0.67-3,1c-4.2,0.9-6.58-1.52-10-4
	c-0.67,0.33-1.33,0.67-2,1c0.74,7.45-0.21,10.65-2,17c-1,0.33-2,0.67-3,1c-1.33-0.33-2.67-0.67-4-1c-0.67-1-1.33-2-2-3
	c0.93-6.3-1.49-13.61,1-20C396.48,211.7,401.22,206.04,405.36,200.04z"/>
<path id="ecology_11" class="st0" d="M245.36,349.04c-3.67,0-7.33,0-11,0c0-0.67,0-1.33,0-2c0.67-7,1.33-14,2-21c-0.94-5.58-5.34-5.57-7-9
	c-0.33-9.67-0.67-19.33-1-29c-0.33,0-0.67,0-1,0c-6.17,3.38-1.97,15.88-13,11c0-1.33,0-2.67,0-4c3.33-5.33,6.67-10.67,10-16
	c-0.33-0.33-0.67-0.67-1-1c-1.33-1.67-2.67-3.33-4-5c-1.67,0.33-3.33,0.67-5,1c0.63,7.55,2.11,6.99-1,12c-0.33,0-0.67,0-1,0
	c-0.67,0-1.33,0-2,0c-1.33-2-2.67-4-4-6c5.12-9.59,11.3-25.13,23-28c3.33,5.67,6.67,11.33,10,17c2-1.33,4-2.67,6-4
	c-1.73-7.95-6.51-9.71-3-14c4.98,1.67,11.23,0.3,15,4c-3.7,6.73-1.03,6.47,1,14c-6.22,5.23-5.32,8.99-7,19c-0.67,0.33-1.33,0.67-2,1
	c-2.67-0.33-5.33-0.67-8-1c-1-4.33-2-8.67-3-13c-1.33,0.33-2.67,0.67-4,1c1.06,7.22,1.46,15.24,4,24c4.85-1.73,5.58-2.41,9,1
	C240.98,318.42,243.92,333.6,245.36,349.04z"/>
<path id="ecology_12" class="st0" d="M418.36,320.04c0.33,2.33,0.67,4.67,1,7c2.48,4.32,8.86,6.53,13,9c-0.67,2-1.33,4-2,6
	c-7.11,1.61-8.94,5.14-13,7c-11.32,5.2-37.49-1.42-45-3c-9,1-18,2-27,3c-9.33,0-18.67,0-28,0c-4.08-2.39-1.42-4.45-10-5
	c-2.44,6.62-10.01,5.72-19,5c-0.67-0.33-1.33-0.67-2-1c0.18-8-4.53-7.78-8-15c0.67-1,1.33-2,2-3c6,1.33,12,2.67,18,4
	c4.06-3.42,4.01-5.73,3-12c-0.67-0.67-1.33-1.33-2-2c-7.76,3.53-25.21,1.92-29-5c-2.97-7.4-7.29-22.69-4-30c1-0.33,2-0.67,3-1
	c2,1,4,2,6,3c0.57,4.1,0.39,5.25-1,9c-0.33,2.67-0.67,5.33-1,8c11.21-2.95,11.24-9.91,16-19c19.64-2.35,42.19,6.83,52,26
	c0.33,0,0.67,0,1,0c13.36-1.18,20.15-5.85,28-12c15.57,0.24,22.62,8.43,28,19C405.03,318.71,411.7,319.37,418.36,320.04z"/>
<path id="ecology_13" class="st0" d="M501.36,292.04c-0.33,3.33-0.67,6.67-1,10c-7.36,1.79-7.2,5.02-10,11c-1,0-2,0-3,0c-4.29-6.3-7.59-5.55-12-10
	c1.06-4.36,0.73-7.9,2-11c0.33,0,0.67,0,1,0c4.33,1.67,8.67,3.33,13,5C494.41,293.49,494.69,292.43,501.36,292.04z"/>
<path id="ecology_14" class="st0" d="M499.36,316.04c2.12,2.08,1.84,2.59,2,7c-4.53,1.68-3.78,1.19-4,7c4.23,4.96,6.57,11.34-3,13
	c-4.66-7.67-12-7.14-18-13c2.33-4,4.67-8,7-12C490,318.23,495.32,318.66,499.36,316.04z"/>
</svg>
